$ example_synthetic base_plate
$ Units: mm
SOL 101
CEND
BEGIN BULK
GRID*                  1                -2.500000000e+01-6.000000000e+00*       
*        0.000000000e+00
GRID*                  2                -1.500000000e+01-6.000000000e+00*       
*        0.000000000e+00
GRID*                  3                -9.000000000e+00-6.000000000e+00*       
*        0.000000000e+00
GRID*                  4                -3.000000000e+00-6.000000000e+00*       
*        0.000000000e+00
GRID*                  5                 3.000000000e+00-6.000000000e+00*       
*        0.000000000e+00
GRID*                  6                 9.000000000e+00-6.000000000e+00*       
*        0.000000000e+00
GRID*                  7                 1.500000000e+01-6.000000000e+00*       
*        0.000000000e+00
GRID*                  8                 2.500000000e+01-6.000000000e+00*       
*        0.000000000e+00
GRID*                  9                -2.500000000e+01-3.000000000e+00*       
*        0.000000000e+00
GRID*                 10                -1.500000000e+01-3.000000000e+00*       
*        0.000000000e+00
GRID*                 11                -9.000000000e+00-3.000000000e+00*       
*        0.000000000e+00
GRID*                 12                -3.000000000e+00-3.000000000e+00*       
*        0.000000000e+00
GRID*                 13                 3.000000000e+00-3.000000000e+00*       
*        0.000000000e+00
GRID*                 14                 9.000000000e+00-3.000000000e+00*       
*        0.000000000e+00
GRID*                 15                 1.500000000e+01-3.000000000e+00*       
*        0.000000000e+00
GRID*                 16                 2.500000000e+01-3.000000000e+00*       
*        0.000000000e+00
GRID*                 17                -2.500000000e+01 0.000000000e+00*       
*        0.000000000e+00
GRID*                 18                -1.500000000e+01 0.000000000e+00*       
*        0.000000000e+00
GRID*                 19                -9.000000000e+00 0.000000000e+00*       
*        0.000000000e+00
GRID*                 20                -3.000000000e+00 0.000000000e+00*       
*        0.000000000e+00
GRID*                 21                 3.000000000e+00 0.000000000e+00*       
*        0.000000000e+00
GRID*                 22                 9.000000000e+00 0.000000000e+00*       
*        0.000000000e+00
GRID*                 23                 1.500000000e+01 0.000000000e+00*       
*        0.000000000e+00
GRID*                 24                 2.500000000e+01 0.000000000e+00*       
*        0.000000000e+00
GRID*                 25                -2.500000000e+01-6.000000000e+00*       
*        1.000000000e+01
GRID*                 26                -1.500000000e+01-6.000000000e+00*       
*        1.000000000e+01
GRID*                 27                -9.000000000e+00-6.000000000e+00*       
*        1.000000000e+01
GRID*                 28                -3.000000000e+00-6.000000000e+00*       
*        1.000000000e+01
GRID*                 29                 3.000000000e+00-6.000000000e+00*       
*        1.000000000e+01
GRID*                 30                 9.000000000e+00-6.000000000e+00*       
*        1.000000000e+01
GRID*                 31                 1.500000000e+01-6.000000000e+00*       
*        1.000000000e+01
GRID*                 32                 2.500000000e+01-6.000000000e+00*       
*        1.000000000e+01
GRID*                 33                -2.500000000e+01-3.000000000e+00*       
*        1.000000000e+01
GRID*                 34                -1.500000000e+01-3.000000000e+00*       
*        1.000000000e+01
GRID*                 35                -9.000000000e+00-3.000000000e+00*       
*        1.000000000e+01
GRID*                 36                -3.000000000e+00-3.000000000e+00*       
*        1.000000000e+01
GRID*                 37                 3.000000000e+00-3.000000000e+00*       
*        1.000000000e+01
GRID*                 38                 9.000000000e+00-3.000000000e+00*       
*        1.000000000e+01
GRID*                 39                 1.500000000e+01-3.000000000e+00*       
*        1.000000000e+01
GRID*                 40                 2.500000000e+01-3.000000000e+00*       
*        1.000000000e+01
GRID*                 41                -2.500000000e+01 0.000000000e+00*       
*        1.000000000e+01
GRID*                 42                -1.500000000e+01 0.000000000e+00*       
*        1.000000000e+01
GRID*                 43                -9.000000000e+00 0.000000000e+00*       
*        1.000000000e+01
GRID*                 44                -3.000000000e+00 0.000000000e+00*       
*        1.000000000e+01
GRID*                 45                 3.000000000e+00 0.000000000e+00*       
*        1.000000000e+01
GRID*                 46                 9.000000000e+00 0.000000000e+00*       
*        1.000000000e+01
GRID*                 47                 1.500000000e+01 0.000000000e+00*       
*        1.000000000e+01
GRID*                 48                 2.500000000e+01 0.000000000e+00*       
*        1.000000000e+01
GRID*                 49                -2.500000000e+01-6.000000000e+00*       
*        2.000000000e+01
GRID*                 50                -1.500000000e+01-6.000000000e+00*       
*        2.000000000e+01
GRID*                 51                -9.000000000e+00-6.000000000e+00*       
*        2.000000000e+01
GRID*                 52                -3.000000000e+00-6.000000000e+00*       
*        2.000000000e+01
GRID*                 53                 3.000000000e+00-6.000000000e+00*       
*        2.000000000e+01
GRID*                 54                 9.000000000e+00-6.000000000e+00*       
*        2.000000000e+01
GRID*                 55                 1.500000000e+01-6.000000000e+00*       
*        2.000000000e+01
GRID*                 56                 2.500000000e+01-6.000000000e+00*       
*        2.000000000e+01
GRID*                 57                -2.500000000e+01-3.000000000e+00*       
*        2.000000000e+01
GRID*                 58                -1.500000000e+01-3.000000000e+00*       
*        2.000000000e+01
GRID*                 59                -9.000000000e+00-3.000000000e+00*       
*        2.000000000e+01
GRID*                 60                -3.000000000e+00-3.000000000e+00*       
*        2.000000000e+01
GRID*                 61                 3.000000000e+00-3.000000000e+00*       
*        2.000000000e+01
GRID*                 62                 9.000000000e+00-3.000000000e+00*       
*        2.000000000e+01
GRID*                 63                 1.500000000e+01-3.000000000e+00*       
*        2.000000000e+01
GRID*                 64                 2.500000000e+01-3.000000000e+00*       
*        2.000000000e+01
GRID*                 65                -2.500000000e+01 0.000000000e+00*       
*        2.000000000e+01
GRID*                 66                -1.500000000e+01 0.000000000e+00*       
*        2.000000000e+01
GRID*                 67                -9.000000000e+00 0.000000000e+00*       
*        2.000000000e+01
GRID*                 68                -3.000000000e+00 0.000000000e+00*       
*        2.000000000e+01
GRID*                 69                 3.000000000e+00 0.000000000e+00*       
*        2.000000000e+01
GRID*                 70                 9.000000000e+00 0.000000000e+00*       
*        2.000000000e+01
GRID*                 71                 1.500000000e+01 0.000000000e+00*       
*        2.000000000e+01
GRID*                 72                 2.500000000e+01 0.000000000e+00*       
*        2.000000000e+01
GRID*                 73                -2.500000000e+01-6.000000000e+00*       
*        3.000000000e+01
GRID*                 74                -1.500000000e+01-6.000000000e+00*       
*        3.000000000e+01
GRID*                 75                -9.000000000e+00-6.000000000e+00*       
*        3.000000000e+01
GRID*                 76                -3.000000000e+00-6.000000000e+00*       
*        3.000000000e+01
GRID*                 77                 3.000000000e+00-6.000000000e+00*       
*        3.000000000e+01
GRID*                 78                 9.000000000e+00-6.000000000e+00*       
*        3.000000000e+01
GRID*                 79                 1.500000000e+01-6.000000000e+00*       
*        3.000000000e+01
GRID*                 80                 2.500000000e+01-6.000000000e+00*       
*        3.000000000e+01
GRID*                 81                -2.500000000e+01-3.000000000e+00*       
*        3.000000000e+01
GRID*                 82                -1.500000000e+01-3.000000000e+00*       
*        3.000000000e+01
GRID*                 83                -9.000000000e+00-3.000000000e+00*       
*        3.000000000e+01
GRID*                 84                -3.000000000e+00-3.000000000e+00*       
*        3.000000000e+01
GRID*                 85                 3.000000000e+00-3.000000000e+00*       
*        3.000000000e+01
GRID*                 86                 9.000000000e+00-3.000000000e+00*       
*        3.000000000e+01
GRID*                 87                 1.500000000e+01-3.000000000e+00*       
*        3.000000000e+01
GRID*                 88                 2.500000000e+01-3.000000000e+00*       
*        3.000000000e+01
GRID*                 89                -2.500000000e+01 0.000000000e+00*       
*        3.000000000e+01
GRID*                 90                -1.500000000e+01 0.000000000e+00*       
*        3.000000000e+01
GRID*                 91                -9.000000000e+00 0.000000000e+00*       
*        3.000000000e+01
GRID*                 92                -3.000000000e+00 0.000000000e+00*       
*        3.000000000e+01
GRID*                 93                 3.000000000e+00 0.000000000e+00*       
*        3.000000000e+01
GRID*                 94                 9.000000000e+00 0.000000000e+00*       
*        3.000000000e+01
GRID*                 95                 1.500000000e+01 0.000000000e+00*       
*        3.000000000e+01
GRID*                 96                 2.500000000e+01 0.000000000e+00*       
*        3.000000000e+01
GRID*                 97                -2.500000000e+01-6.000000000e+00*       
*        4.000000000e+01
GRID*                 98                -1.500000000e+01-6.000000000e+00*       
*        4.000000000e+01
GRID*                 99                -9.000000000e+00-6.000000000e+00*       
*        4.000000000e+01
GRID*                100                -3.000000000e+00-6.000000000e+00*       
*        4.000000000e+01
GRID*                101                 3.000000000e+00-6.000000000e+00*       
*        4.000000000e+01
GRID*                102                 9.000000000e+00-6.000000000e+00*       
*        4.000000000e+01
GRID*                103                 1.500000000e+01-6.000000000e+00*       
*        4.000000000e+01
GRID*                104                 2.500000000e+01-6.000000000e+00*       
*        4.000000000e+01
GRID*                105                -2.500000000e+01-3.000000000e+00*       
*        4.000000000e+01
GRID*                106                -1.500000000e+01-3.000000000e+00*       
*        4.000000000e+01
GRID*                107                -9.000000000e+00-3.000000000e+00*       
*        4.000000000e+01
GRID*                108                -3.000000000e+00-3.000000000e+00*       
*        4.000000000e+01
GRID*                109                 3.000000000e+00-3.000000000e+00*       
*        4.000000000e+01
GRID*                110                 9.000000000e+00-3.000000000e+00*       
*        4.000000000e+01
GRID*                111                 1.500000000e+01-3.000000000e+00*       
*        4.000000000e+01
GRID*                112                 2.500000000e+01-3.000000000e+00*       
*        4.000000000e+01
GRID*                113                -2.500000000e+01 0.000000000e+00*       
*        4.000000000e+01
GRID*                114                -1.500000000e+01 0.000000000e+00*       
*        4.000000000e+01
GRID*                115                -9.000000000e+00 0.000000000e+00*       
*        4.000000000e+01
GRID*                116                -3.000000000e+00 0.000000000e+00*       
*        4.000000000e+01
GRID*                117                 3.000000000e+00 0.000000000e+00*       
*        4.000000000e+01
GRID*                118                 9.000000000e+00 0.000000000e+00*       
*        4.000000000e+01
GRID*                119                 1.500000000e+01 0.000000000e+00*       
*        4.000000000e+01
GRID*                120                 2.500000000e+01 0.000000000e+00*       
*        4.000000000e+01
GRID*                121                -2.500000000e+01-6.000000000e+00*       
*        5.000000000e+01
GRID*                122                -1.500000000e+01-6.000000000e+00*       
*        5.000000000e+01
GRID*                123                -9.000000000e+00-6.000000000e+00*       
*        5.000000000e+01
GRID*                124                -3.000000000e+00-6.000000000e+00*       
*        5.000000000e+01
GRID*                125                 3.000000000e+00-6.000000000e+00*       
*        5.000000000e+01
GRID*                126                 9.000000000e+00-6.000000000e+00*       
*        5.000000000e+01
GRID*                127                 1.500000000e+01-6.000000000e+00*       
*        5.000000000e+01
GRID*                128                 2.500000000e+01-6.000000000e+00*       
*        5.000000000e+01
GRID*                129                -2.500000000e+01-3.000000000e+00*       
*        5.000000000e+01
GRID*                130                -1.500000000e+01-3.000000000e+00*       
*        5.000000000e+01
GRID*                131                -9.000000000e+00-3.000000000e+00*       
*        5.000000000e+01
GRID*                132                -3.000000000e+00-3.000000000e+00*       
*        5.000000000e+01
GRID*                133                 3.000000000e+00-3.000000000e+00*       
*        5.000000000e+01
GRID*                134                 9.000000000e+00-3.000000000e+00*       
*        5.000000000e+01
GRID*                135                 1.500000000e+01-3.000000000e+00*       
*        5.000000000e+01
GRID*                136                 2.500000000e+01-3.000000000e+00*       
*        5.000000000e+01
GRID*                137                -2.500000000e+01 0.000000000e+00*       
*        5.000000000e+01
GRID*                138                -1.500000000e+01 0.000000000e+00*       
*        5.000000000e+01
GRID*                139                -9.000000000e+00 0.000000000e+00*       
*        5.000000000e+01
GRID*                140                -3.000000000e+00 0.000000000e+00*       
*        5.000000000e+01
GRID*                141                 3.000000000e+00 0.000000000e+00*       
*        5.000000000e+01
GRID*                142                 9.000000000e+00 0.000000000e+00*       
*        5.000000000e+01
GRID*                143                 1.500000000e+01 0.000000000e+00*       
*        5.000000000e+01
GRID*                144                 2.500000000e+01 0.000000000e+00*       
*        5.000000000e+01
GRID*                145                -2.500000000e+01-6.000000000e+00*       
*        6.000000000e+01
GRID*                146                -1.500000000e+01-6.000000000e+00*       
*        6.000000000e+01
GRID*                147                -9.000000000e+00-6.000000000e+00*       
*        6.000000000e+01
GRID*                148                -3.000000000e+00-6.000000000e+00*       
*        6.000000000e+01
GRID*                149                 3.000000000e+00-6.000000000e+00*       
*        6.000000000e+01
GRID*                150                 9.000000000e+00-6.000000000e+00*       
*        6.000000000e+01
GRID*                151                 1.500000000e+01-6.000000000e+00*       
*        6.000000000e+01
GRID*                152                 2.500000000e+01-6.000000000e+00*       
*        6.000000000e+01
GRID*                153                -2.500000000e+01-3.000000000e+00*       
*        6.000000000e+01
GRID*                154                -1.500000000e+01-3.000000000e+00*       
*        6.000000000e+01
GRID*                155                -9.000000000e+00-3.000000000e+00*       
*        6.000000000e+01
GRID*                156                -3.000000000e+00-3.000000000e+00*       
*        6.000000000e+01
GRID*                157                 3.000000000e+00-3.000000000e+00*       
*        6.000000000e+01
GRID*                158                 9.000000000e+00-3.000000000e+00*       
*        6.000000000e+01
GRID*                159                 1.500000000e+01-3.000000000e+00*       
*        6.000000000e+01
GRID*                160                 2.500000000e+01-3.000000000e+00*       
*        6.000000000e+01
GRID*                161                -2.500000000e+01 0.000000000e+00*       
*        6.000000000e+01
GRID*                162                -1.500000000e+01 0.000000000e+00*       
*        6.000000000e+01
GRID*                163                -9.000000000e+00 0.000000000e+00*       
*        6.000000000e+01
GRID*                164                -3.000000000e+00 0.000000000e+00*       
*        6.000000000e+01
GRID*                165                 3.000000000e+00 0.000000000e+00*       
*        6.000000000e+01
GRID*                166                 9.000000000e+00 0.000000000e+00*       
*        6.000000000e+01
GRID*                167                 1.500000000e+01 0.000000000e+00*       
*        6.000000000e+01
GRID*                168                 2.500000000e+01 0.000000000e+00*       
*        6.000000000e+01
GRID*                169                -2.500000000e+01-6.000000000e+00*       
*        7.000000000e+01
GRID*                170                -1.500000000e+01-6.000000000e+00*       
*        7.000000000e+01
GRID*                171                -9.000000000e+00-6.000000000e+00*       
*        7.000000000e+01
GRID*                172                -3.000000000e+00-6.000000000e+00*       
*        7.000000000e+01
GRID*                173                 3.000000000e+00-6.000000000e+00*       
*        7.000000000e+01
GRID*                174                 9.000000000e+00-6.000000000e+00*       
*        7.000000000e+01
GRID*                175                 1.500000000e+01-6.000000000e+00*       
*        7.000000000e+01
GRID*                176                 2.500000000e+01-6.000000000e+00*       
*        7.000000000e+01
GRID*                177                -2.500000000e+01-3.000000000e+00*       
*        7.000000000e+01
GRID*                178                -1.500000000e+01-3.000000000e+00*       
*        7.000000000e+01
GRID*                179                -9.000000000e+00-3.000000000e+00*       
*        7.000000000e+01
GRID*                180                -3.000000000e+00-3.000000000e+00*       
*        7.000000000e+01
GRID*                181                 3.000000000e+00-3.000000000e+00*       
*        7.000000000e+01
GRID*                182                 9.000000000e+00-3.000000000e+00*       
*        7.000000000e+01
GRID*                183                 1.500000000e+01-3.000000000e+00*       
*        7.000000000e+01
GRID*                184                 2.500000000e+01-3.000000000e+00*       
*        7.000000000e+01
GRID*                185                -2.500000000e+01 0.000000000e+00*       
*        7.000000000e+01
GRID*                186                -1.500000000e+01 0.000000000e+00*       
*        7.000000000e+01
GRID*                187                -9.000000000e+00 0.000000000e+00*       
*        7.000000000e+01
GRID*                188                -3.000000000e+00 0.000000000e+00*       
*        7.000000000e+01
GRID*                189                 3.000000000e+00 0.000000000e+00*       
*        7.000000000e+01
GRID*                190                 9.000000000e+00 0.000000000e+00*       
*        7.000000000e+01
GRID*                191                 1.500000000e+01 0.000000000e+00*       
*        7.000000000e+01
GRID*                192                 2.500000000e+01 0.000000000e+00*       
*        7.000000000e+01
GRID*                193                -2.500000000e+01-6.000000000e+00*       
*        8.000000000e+01
GRID*                194                -1.500000000e+01-6.000000000e+00*       
*        8.000000000e+01
GRID*                195                -9.000000000e+00-6.000000000e+00*       
*        8.000000000e+01
GRID*                196                -3.000000000e+00-6.000000000e+00*       
*        8.000000000e+01
GRID*                197                 3.000000000e+00-6.000000000e+00*       
*        8.000000000e+01
GRID*                198                 9.000000000e+00-6.000000000e+00*       
*        8.000000000e+01
GRID*                199                 1.500000000e+01-6.000000000e+00*       
*        8.000000000e+01
GRID*                200                 2.500000000e+01-6.000000000e+00*       
*        8.000000000e+01
GRID*                201                -2.500000000e+01-3.000000000e+00*       
*        8.000000000e+01
GRID*                202                -1.500000000e+01-3.000000000e+00*       
*        8.000000000e+01
GRID*                203                -9.000000000e+00-3.000000000e+00*       
*        8.000000000e+01
GRID*                204                -3.000000000e+00-3.000000000e+00*       
*        8.000000000e+01
GRID*                205                 3.000000000e+00-3.000000000e+00*       
*        8.000000000e+01
GRID*                206                 9.000000000e+00-3.000000000e+00*       
*        8.000000000e+01
GRID*                207                 1.500000000e+01-3.000000000e+00*       
*        8.000000000e+01
GRID*                208                 2.500000000e+01-3.000000000e+00*       
*        8.000000000e+01
GRID*                209                -2.500000000e+01 0.000000000e+00*       
*        8.000000000e+01
GRID*                210                -1.500000000e+01 0.000000000e+00*       
*        8.000000000e+01
GRID*                211                -9.000000000e+00 0.000000000e+00*       
*        8.000000000e+01
GRID*                212                -3.000000000e+00 0.000000000e+00*       
*        8.000000000e+01
GRID*                213                 3.000000000e+00 0.000000000e+00*       
*        8.000000000e+01
GRID*                214                 9.000000000e+00 0.000000000e+00*       
*        8.000000000e+01
GRID*                215                 1.500000000e+01 0.000000000e+00*       
*        8.000000000e+01
GRID*                216                 2.500000000e+01 0.000000000e+00*       
*        8.000000000e+01
GRID*                217                -2.500000000e+01-6.000000000e+00*       
*        9.000000000e+01
GRID*                218                -1.500000000e+01-6.000000000e+00*       
*        9.000000000e+01
GRID*                219                -9.000000000e+00-6.000000000e+00*       
*        9.000000000e+01
GRID*                220                -3.000000000e+00-6.000000000e+00*       
*        9.000000000e+01
GRID*                221                 3.000000000e+00-6.000000000e+00*       
*        9.000000000e+01
GRID*                222                 9.000000000e+00-6.000000000e+00*       
*        9.000000000e+01
GRID*                223                 1.500000000e+01-6.000000000e+00*       
*        9.000000000e+01
GRID*                224                 2.500000000e+01-6.000000000e+00*       
*        9.000000000e+01
GRID*                225                -2.500000000e+01-3.000000000e+00*       
*        9.000000000e+01
GRID*                226                -1.500000000e+01-3.000000000e+00*       
*        9.000000000e+01
GRID*                227                -9.000000000e+00-3.000000000e+00*       
*        9.000000000e+01
GRID*                228                -3.000000000e+00-3.000000000e+00*       
*        9.000000000e+01
GRID*                229                 3.000000000e+00-3.000000000e+00*       
*        9.000000000e+01
GRID*                230                 9.000000000e+00-3.000000000e+00*       
*        9.000000000e+01
GRID*                231                 1.500000000e+01-3.000000000e+00*       
*        9.000000000e+01
GRID*                232                 2.500000000e+01-3.000000000e+00*       
*        9.000000000e+01
GRID*                233                -2.500000000e+01 0.000000000e+00*       
*        9.000000000e+01
GRID*                234                -1.500000000e+01 0.000000000e+00*       
*        9.000000000e+01
GRID*                235                -9.000000000e+00 0.000000000e+00*       
*        9.000000000e+01
GRID*                236                -3.000000000e+00 0.000000000e+00*       
*        9.000000000e+01
GRID*                237                 3.000000000e+00 0.000000000e+00*       
*        9.000000000e+01
GRID*                238                 9.000000000e+00 0.000000000e+00*       
*        9.000000000e+01
GRID*                239                 1.500000000e+01 0.000000000e+00*       
*        9.000000000e+01
GRID*                240                 2.500000000e+01 0.000000000e+00*       
*        9.000000000e+01
GRID*                241                -2.500000000e+01-6.000000000e+00*       
*        1.000000000e+02
GRID*                242                -1.500000000e+01-6.000000000e+00*       
*        1.000000000e+02
GRID*                243                -9.000000000e+00-6.000000000e+00*       
*        1.000000000e+02
GRID*                244                -3.000000000e+00-6.000000000e+00*       
*        1.000000000e+02
GRID*                245                 3.000000000e+00-6.000000000e+00*       
*        1.000000000e+02
GRID*                246                 9.000000000e+00-6.000000000e+00*       
*        1.000000000e+02
GRID*                247                 1.500000000e+01-6.000000000e+00*       
*        1.000000000e+02
GRID*                248                 2.500000000e+01-6.000000000e+00*       
*        1.000000000e+02
GRID*                249                -2.500000000e+01-3.000000000e+00*       
*        1.000000000e+02
GRID*                250                -1.500000000e+01-3.000000000e+00*       
*        1.000000000e+02
GRID*                251                -9.000000000e+00-3.000000000e+00*       
*        1.000000000e+02
GRID*                252                -3.000000000e+00-3.000000000e+00*       
*        1.000000000e+02
GRID*                253                 3.000000000e+00-3.000000000e+00*       
*        1.000000000e+02
GRID*                254                 9.000000000e+00-3.000000000e+00*       
*        1.000000000e+02
GRID*                255                 1.500000000e+01-3.000000000e+00*       
*        1.000000000e+02
GRID*                256                 2.500000000e+01-3.000000000e+00*       
*        1.000000000e+02
GRID*                257                -2.500000000e+01 0.000000000e+00*       
*        1.000000000e+02
GRID*                258                -1.500000000e+01 0.000000000e+00*       
*        1.000000000e+02
GRID*                259                -9.000000000e+00 0.000000000e+00*       
*        1.000000000e+02
GRID*                260                -3.000000000e+00 0.000000000e+00*       
*        1.000000000e+02
GRID*                261                 3.000000000e+00 0.000000000e+00*       
*        1.000000000e+02
GRID*                262                 9.000000000e+00 0.000000000e+00*       
*        1.000000000e+02
GRID*                263                 1.500000000e+01 0.000000000e+00*       
*        1.000000000e+02
GRID*                264                 2.500000000e+01 0.000000000e+00*       
*        1.000000000e+02
CHEXA          1       1       1       2      10       9      25      26+       
+             34      33
CHEXA          2       1       2       3      11      10      26      27+       
+             35      34
CHEXA          3       1       3       4      12      11      27      28+       
+             36      35
CHEXA          4       1       4       5      13      12      28      29+       
+             37      36
CHEXA          5       1       5       6      14      13      29      30+       
+             38      37
CHEXA          6       1       6       7      15      14      30      31+       
+             39      38
CHEXA          7       1       7       8      16      15      31      32+       
+             40      39
CHEXA          8       1       9      10      18      17      33      34+       
+             42      41
CHEXA          9       1      10      11      19      18      34      35+       
+             43      42
CHEXA         10       1      11      12      20      19      35      36+       
+             44      43
CHEXA         11       1      12      13      21      20      36      37+       
+             45      44
CHEXA         12       1      13      14      22      21      37      38+       
+             46      45
CHEXA         13       1      14      15      23      22      38      39+       
+             47      46
CHEXA         14       1      15      16      24      23      39      40+       
+             48      47
CHEXA         15       1      25      26      34      33      49      50+       
+             58      57
CHEXA         16       1      26      27      35      34      50      51+       
+             59      58
CHEXA         17       1      27      28      36      35      51      52+       
+             60      59
CHEXA         18       1      28      29      37      36      52      53+       
+             61      60
CHEXA         19       1      29      30      38      37      53      54+       
+             62      61
CHEXA         20       1      30      31      39      38      54      55+       
+             63      62
CHEXA         21       1      31      32      40      39      55      56+       
+             64      63
CHEXA         22       1      33      34      42      41      57      58+       
+             66      65
CHEXA         23       1      34      35      43      42      58      59+       
+             67      66
CHEXA         24       1      35      36      44      43      59      60+       
+             68      67
CHEXA         25       1      36      37      45      44      60      61+       
+             69      68
CHEXA         26       1      37      38      46      45      61      62+       
+             70      69
CHEXA         27       1      38      39      47      46      62      63+       
+             71      70
CHEXA         28       1      39      40      48      47      63      64+       
+             72      71
CHEXA         29       1      49      50      58      57      73      74+       
+             82      81
CHEXA         30       1      50      51      59      58      74      75+       
+             83      82
CHEXA         31       1      51      52      60      59      75      76+       
+             84      83
CHEXA         32       1      52      53      61      60      76      77+       
+             85      84
CHEXA         33       1      53      54      62      61      77      78+       
+             86      85
CHEXA         34       1      54      55      63      62      78      79+       
+             87      86
CHEXA         35       1      55      56      64      63      79      80+       
+             88      87
CHEXA         36       1      57      58      66      65      81      82+       
+             90      89
CHEXA         37       1      58      59      67      66      82      83+       
+             91      90
CHEXA         38       1      59      60      68      67      83      84+       
+             92      91
CHEXA         39       1      60      61      69      68      84      85+       
+             93      92
CHEXA         40       1      61      62      70      69      85      86+       
+             94      93
CHEXA         41       1      62      63      71      70      86      87+       
+             95      94
CHEXA         42       1      63      64      72      71      87      88+       
+             96      95
CHEXA         43       1      73      74      82      81      97      98+       
+            106     105
CHEXA         44       1      74      75      83      82      98      99+       
+            107     106
CHEXA         45       1      75      76      84      83      99     100+       
+            108     107
CHEXA         46       1      76      77      85      84     100     101+       
+            109     108
CHEXA         47       1      77      78      86      85     101     102+       
+            110     109
CHEXA         48       1      78      79      87      86     102     103+       
+            111     110
CHEXA         49       1      79      80      88      87     103     104+       
+            112     111
CHEXA         50       1      81      82      90      89     105     106+       
+            114     113
CHEXA         51       1      82      83      91      90     106     107+       
+            115     114
CHEXA         52       1      83      84      92      91     107     108+       
+            116     115
CHEXA         53       1      84      85      93      92     108     109+       
+            117     116
CHEXA         54       1      85      86      94      93     109     110+       
+            118     117
CHEXA         55       1      86      87      95      94     110     111+       
+            119     118
CHEXA         56       1      87      88      96      95     111     112+       
+            120     119
CHEXA         57       1      97      98     106     105     121     122+       
+            130     129
CHEXA         58       1      98      99     107     106     122     123+       
+            131     130
CHEXA         59       1      99     100     108     107     123     124+       
+            132     131
CHEXA         60       1     100     101     109     108     124     125+       
+            133     132
CHEXA         61       1     101     102     110     109     125     126+       
+            134     133
CHEXA         62       1     102     103     111     110     126     127+       
+            135     134
CHEXA         63       1     103     104     112     111     127     128+       
+            136     135
CHEXA         64       1     105     106     114     113     129     130+       
+            138     137
CHEXA         65       1     106     107     115     114     130     131+       
+            139     138
CHEXA         66       1     107     108     116     115     131     132+       
+            140     139
CHEXA         67       1     108     109     117     116     132     133+       
+            141     140
CHEXA         68       1     109     110     118     117     133     134+       
+            142     141
CHEXA         69       1     110     111     119     118     134     135+       
+            143     142
CHEXA         70       1     111     112     120     119     135     136+       
+            144     143
CHEXA         71       1     121     122     130     129     145     146+       
+            154     153
CHEXA         72       1     122     123     131     130     146     147+       
+            155     154
CHEXA         73       1     123     124     132     131     147     148+       
+            156     155
CHEXA         74       1     124     125     133     132     148     149+       
+            157     156
CHEXA         75       1     125     126     134     133     149     150+       
+            158     157
CHEXA         76       1     126     127     135     134     150     151+       
+            159     158
CHEXA         77       1     127     128     136     135     151     152+       
+            160     159
CHEXA         78       1     129     130     138     137     153     154+       
+            162     161
CHEXA         79       1     130     131     139     138     154     155+       
+            163     162
CHEXA         80       1     131     132     140     139     155     156+       
+            164     163
CHEXA         81       1     132     133     141     140     156     157+       
+            165     164
CHEXA         82       1     133     134     142     141     157     158+       
+            166     165
CHEXA         83       1     134     135     143     142     158     159+       
+            167     166
CHEXA         84       1     135     136     144     143     159     160+       
+            168     167
CHEXA         85       1     145     146     154     153     169     170+       
+            178     177
CHEXA         86       1     146     147     155     154     170     171+       
+            179     178
CHEXA         87       1     147     148     156     155     171     172+       
+            180     179
CHEXA         88       1     148     149     157     156     172     173+       
+            181     180
CHEXA         89       1     149     150     158     157     173     174+       
+            182     181
CHEXA         90       1     150     151     159     158     174     175+       
+            183     182
CHEXA         91       1     151     152     160     159     175     176+       
+            184     183
CHEXA         92       1     153     154     162     161     177     178+       
+            186     185
CHEXA         93       1     154     155     163     162     178     179+       
+            187     186
CHEXA         94       1     155     156     164     163     179     180+       
+            188     187
CHEXA         95       1     156     157     165     164     180     181+       
+            189     188
CHEXA         96       1     157     158     166     165     181     182+       
+            190     189
CHEXA         97       1     158     159     167     166     182     183+       
+            191     190
CHEXA         98       1     159     160     168     167     183     184+       
+            192     191
CHEXA         99       1     169     170     178     177     193     194+       
+            202     201
CHEXA        100       1     170     171     179     178     194     195+       
+            203     202
CHEXA        101       1     171     172     180     179     195     196+       
+            204     203
CHEXA        102       1     172     173     181     180     196     197+       
+            205     204
CHEXA        103       1     173     174     182     181     197     198+       
+            206     205
CHEXA        104       1     174     175     183     182     198     199+       
+            207     206
CHEXA        105       1     175     176     184     183     199     200+       
+            208     207
CHEXA        106       1     177     178     186     185     201     202+       
+            210     209
CHEXA        107       1     178     179     187     186     202     203+       
+            211     210
CHEXA        108       1     179     180     188     187     203     204+       
+            212     211
CHEXA        109       1     180     181     189     188     204     205+       
+            213     212
CHEXA        110       1     181     182     190     189     205     206+       
+            214     213
CHEXA        111       1     182     183     191     190     206     207+       
+            215     214
CHEXA        112       1     183     184     192     191     207     208+       
+            216     215
CHEXA        113       1     193     194     202     201     217     218+       
+            226     225
CHEXA        114       1     194     195     203     202     218     219+       
+            227     226
CHEXA        115       1     195     196     204     203     219     220+       
+            228     227
CHEXA        116       1     196     197     205     204     220     221+       
+            229     228
CHEXA        117       1     197     198     206     205     221     222+       
+            230     229
CHEXA        118       1     198     199     207     206     222     223+       
+            231     230
CHEXA        119       1     199     200     208     207     223     224+       
+            232     231
CHEXA        120       1     201     202     210     209     225     226+       
+            234     233
CHEXA        121       1     202     203     211     210     226     227+       
+            235     234
CHEXA        122       1     203     204     212     211     227     228+       
+            236     235
CHEXA        123       1     204     205     213     212     228     229+       
+            237     236
CHEXA        124       1     205     206     214     213     229     230+       
+            238     237
CHEXA        125       1     206     207     215     214     230     231+       
+            239     238
CHEXA        126       1     207     208     216     215     231     232+       
+            240     239
CHEXA        127       1     217     218     226     225     241     242+       
+            250     249
CHEXA        128       1     218     219     227     226     242     243+       
+            251     250
CHEXA        129       1     219     220     228     227     243     244+       
+            252     251
CHEXA        130       1     220     221     229     228     244     245+       
+            253     252
CHEXA        131       1     221     222     230     229     245     246+       
+            254     253
CHEXA        132       1     222     223     231     230     246     247+       
+            255     254
CHEXA        133       1     223     224     232     231     247     248+       
+            256     255
CHEXA        134       1     225     226     234     233     249     250+       
+            258     257
CHEXA        135       1     226     227     235     234     250     251+       
+            259     258
CHEXA        136       1     227     228     236     235     251     252+       
+            260     259
CHEXA        137       1     228     229     237     236     252     253+       
+            261     260
CHEXA        138       1     229     230     238     237     253     254+       
+            262     261
CHEXA        139       1     230     231     239     238     254     255+       
+            263     262
CHEXA        140       1     231     232     240     239     255     256+       
+            264     263
ENDDATA
