$ example_synthetic base_web
$ Units: mm
SOL 101
CEND
BEGIN BULK
GRID*                  1                -3.000000000e+00 0.000000000e+00*       
*        0.000000000e+00
GRID*                  2                 0.000000000e+00 0.000000000e+00*       
*        0.000000000e+00
GRID*                  3                 3.000000000e+00 0.000000000e+00*       
*        0.000000000e+00
GRID*                  4                -3.000000000e+00 1.000000000e+01*       
*        0.000000000e+00
GRID*                  5                 0.000000000e+00 1.000000000e+01*       
*        0.000000000e+00
GRID*                  6                 3.000000000e+00 1.000000000e+01*       
*        0.000000000e+00
GRID*                  7                -3.000000000e+00 2.000000000e+01*       
*        0.000000000e+00
GRID*                  8                 0.000000000e+00 2.000000000e+01*       
*        0.000000000e+00
GRID*                  9                 3.000000000e+00 2.000000000e+01*       
*        0.000000000e+00
GRID*                 10                -3.000000000e+00 3.000000000e+01*       
*        0.000000000e+00
GRID*                 11                 0.000000000e+00 3.000000000e+01*       
*        0.000000000e+00
GRID*                 12                 3.000000000e+00 3.000000000e+01*       
*        0.000000000e+00
GRID*                 13                -3.000000000e+00 4.000000000e+01*       
*        0.000000000e+00
GRID*                 14                 0.000000000e+00 4.000000000e+01*       
*        0.000000000e+00
GRID*                 15                 3.000000000e+00 4.000000000e+01*       
*        0.000000000e+00
GRID*                 16                -3.000000000e+00 5.000000000e+01*       
*        0.000000000e+00
GRID*                 17                 0.000000000e+00 5.000000000e+01*       
*        0.000000000e+00
GRID*                 18                 3.000000000e+00 5.000000000e+01*       
*        0.000000000e+00
GRID*                 19                -3.000000000e+00 0.000000000e+00*       
*        1.000000000e+01
GRID*                 20                 0.000000000e+00 0.000000000e+00*       
*        1.000000000e+01
GRID*                 21                 3.000000000e+00 0.000000000e+00*       
*        1.000000000e+01
GRID*                 22                -3.000000000e+00 1.000000000e+01*       
*        1.000000000e+01
GRID*                 23                 0.000000000e+00 1.000000000e+01*       
*        1.000000000e+01
GRID*                 24                 3.000000000e+00 1.000000000e+01*       
*        1.000000000e+01
GRID*                 25                -3.000000000e+00 2.000000000e+01*       
*        1.000000000e+01
GRID*                 26                 0.000000000e+00 2.000000000e+01*       
*        1.000000000e+01
GRID*                 27                 3.000000000e+00 2.000000000e+01*       
*        1.000000000e+01
GRID*                 28                -3.000000000e+00 3.000000000e+01*       
*        1.000000000e+01
GRID*                 29                 0.000000000e+00 3.000000000e+01*       
*        1.000000000e+01
GRID*                 30                 3.000000000e+00 3.000000000e+01*       
*        1.000000000e+01
GRID*                 31                -3.000000000e+00 4.000000000e+01*       
*        1.000000000e+01
GRID*                 32                 0.000000000e+00 4.000000000e+01*       
*        1.000000000e+01
GRID*                 33                 3.000000000e+00 4.000000000e+01*       
*        1.000000000e+01
GRID*                 34                -3.000000000e+00 5.000000000e+01*       
*        1.000000000e+01
GRID*                 35                 0.000000000e+00 5.000000000e+01*       
*        1.000000000e+01
GRID*                 36                 3.000000000e+00 5.000000000e+01*       
*        1.000000000e+01
GRID*                 37                -3.000000000e+00 0.000000000e+00*       
*        2.000000000e+01
GRID*                 38                 0.000000000e+00 0.000000000e+00*       
*        2.000000000e+01
GRID*                 39                 3.000000000e+00 0.000000000e+00*       
*        2.000000000e+01
GRID*                 40                -3.000000000e+00 1.000000000e+01*       
*        2.000000000e+01
GRID*                 41                 0.000000000e+00 1.000000000e+01*       
*        2.000000000e+01
GRID*                 42                 3.000000000e+00 1.000000000e+01*       
*        2.000000000e+01
GRID*                 43                -3.000000000e+00 2.000000000e+01*       
*        2.000000000e+01
GRID*                 44                 0.000000000e+00 2.000000000e+01*       
*        2.000000000e+01
GRID*                 45                 3.000000000e+00 2.000000000e+01*       
*        2.000000000e+01
GRID*                 46                -3.000000000e+00 3.000000000e+01*       
*        2.000000000e+01
GRID*                 47                 0.000000000e+00 3.000000000e+01*       
*        2.000000000e+01
GRID*                 48                 3.000000000e+00 3.000000000e+01*       
*        2.000000000e+01
GRID*                 49                -3.000000000e+00 4.000000000e+01*       
*        2.000000000e+01
GRID*                 50                 0.000000000e+00 4.000000000e+01*       
*        2.000000000e+01
GRID*                 51                 3.000000000e+00 4.000000000e+01*       
*        2.000000000e+01
GRID*                 52                -3.000000000e+00 5.000000000e+01*       
*        2.000000000e+01
GRID*                 53                 0.000000000e+00 5.000000000e+01*       
*        2.000000000e+01
GRID*                 54                 3.000000000e+00 5.000000000e+01*       
*        2.000000000e+01
GRID*                 55                -3.000000000e+00 0.000000000e+00*       
*        3.000000000e+01
GRID*                 56                 0.000000000e+00 0.000000000e+00*       
*        3.000000000e+01
GRID*                 57                 3.000000000e+00 0.000000000e+00*       
*        3.000000000e+01
GRID*                 58                -3.000000000e+00 1.000000000e+01*       
*        3.000000000e+01
GRID*                 59                 0.000000000e+00 1.000000000e+01*       
*        3.000000000e+01
GRID*                 60                 3.000000000e+00 1.000000000e+01*       
*        3.000000000e+01
GRID*                 61                -3.000000000e+00 2.000000000e+01*       
*        3.000000000e+01
GRID*                 62                 0.000000000e+00 2.000000000e+01*       
*        3.000000000e+01
GRID*                 63                 3.000000000e+00 2.000000000e+01*       
*        3.000000000e+01
GRID*                 64                -3.000000000e+00 3.000000000e+01*       
*        3.000000000e+01
GRID*                 65                 0.000000000e+00 3.000000000e+01*       
*        3.000000000e+01
GRID*                 66                 3.000000000e+00 3.000000000e+01*       
*        3.000000000e+01
GRID*                 67                -3.000000000e+00 4.000000000e+01*       
*        3.000000000e+01
GRID*                 68                 0.000000000e+00 4.000000000e+01*       
*        3.000000000e+01
GRID*                 69                 3.000000000e+00 4.000000000e+01*       
*        3.000000000e+01
GRID*                 70                -3.000000000e+00 5.000000000e+01*       
*        3.000000000e+01
GRID*                 71                 0.000000000e+00 5.000000000e+01*       
*        3.000000000e+01
GRID*                 72                 3.000000000e+00 5.000000000e+01*       
*        3.000000000e+01
GRID*                 73                -3.000000000e+00 0.000000000e+00*       
*        4.000000000e+01
GRID*                 74                 0.000000000e+00 0.000000000e+00*       
*        4.000000000e+01
GRID*                 75                 3.000000000e+00 0.000000000e+00*       
*        4.000000000e+01
GRID*                 76                -3.000000000e+00 1.000000000e+01*       
*        4.000000000e+01
GRID*                 77                 0.000000000e+00 1.000000000e+01*       
*        4.000000000e+01
GRID*                 78                 3.000000000e+00 1.000000000e+01*       
*        4.000000000e+01
GRID*                 79                -3.000000000e+00 2.000000000e+01*       
*        4.000000000e+01
GRID*                 80                 0.000000000e+00 2.000000000e+01*       
*        4.000000000e+01
GRID*                 81                 3.000000000e+00 2.000000000e+01*       
*        4.000000000e+01
GRID*                 82                -3.000000000e+00 3.000000000e+01*       
*        4.000000000e+01
GRID*                 83                 0.000000000e+00 3.000000000e+01*       
*        4.000000000e+01
GRID*                 84                 3.000000000e+00 3.000000000e+01*       
*        4.000000000e+01
GRID*                 85                -3.000000000e+00 4.000000000e+01*       
*        4.000000000e+01
GRID*                 86                 0.000000000e+00 4.000000000e+01*       
*        4.000000000e+01
GRID*                 87                 3.000000000e+00 4.000000000e+01*       
*        4.000000000e+01
GRID*                 88                -3.000000000e+00 5.000000000e+01*       
*        4.000000000e+01
GRID*                 89                 0.000000000e+00 5.000000000e+01*       
*        4.000000000e+01
GRID*                 90                 3.000000000e+00 5.000000000e+01*       
*        4.000000000e+01
GRID*                 91                -3.000000000e+00 0.000000000e+00*       
*        5.000000000e+01
GRID*                 92                 0.000000000e+00 0.000000000e+00*       
*        5.000000000e+01
GRID*                 93                 3.000000000e+00 0.000000000e+00*       
*        5.000000000e+01
GRID*                 94                -3.000000000e+00 1.000000000e+01*       
*        5.000000000e+01
GRID*                 95                 0.000000000e+00 1.000000000e+01*       
*        5.000000000e+01
GRID*                 96                 3.000000000e+00 1.000000000e+01*       
*        5.000000000e+01
GRID*                 97                -3.000000000e+00 2.000000000e+01*       
*        5.000000000e+01
GRID*                 98                 0.000000000e+00 2.000000000e+01*       
*        5.000000000e+01
GRID*                 99                 3.000000000e+00 2.000000000e+01*       
*        5.000000000e+01
GRID*                100                -3.000000000e+00 3.000000000e+01*       
*        5.000000000e+01
GRID*                101                 0.000000000e+00 3.000000000e+01*       
*        5.000000000e+01
GRID*                102                 3.000000000e+00 3.000000000e+01*       
*        5.000000000e+01
GRID*                103                -3.000000000e+00 4.000000000e+01*       
*        5.000000000e+01
GRID*                104                 0.000000000e+00 4.000000000e+01*       
*        5.000000000e+01
GRID*                105                 3.000000000e+00 4.000000000e+01*       
*        5.000000000e+01
GRID*                106                -3.000000000e+00 5.000000000e+01*       
*        5.000000000e+01
GRID*                107                 0.000000000e+00 5.000000000e+01*       
*        5.000000000e+01
GRID*                108                 3.000000000e+00 5.000000000e+01*       
*        5.000000000e+01
GRID*                109                -3.000000000e+00 0.000000000e+00*       
*        6.000000000e+01
GRID*                110                 0.000000000e+00 0.000000000e+00*       
*        6.000000000e+01
GRID*                111                 3.000000000e+00 0.000000000e+00*       
*        6.000000000e+01
GRID*                112                -3.000000000e+00 1.000000000e+01*       
*        6.000000000e+01
GRID*                113                 0.000000000e+00 1.000000000e+01*       
*        6.000000000e+01
GRID*                114                 3.000000000e+00 1.000000000e+01*       
*        6.000000000e+01
GRID*                115                -3.000000000e+00 2.000000000e+01*       
*        6.000000000e+01
GRID*                116                 0.000000000e+00 2.000000000e+01*       
*        6.000000000e+01
GRID*                117                 3.000000000e+00 2.000000000e+01*       
*        6.000000000e+01
GRID*                118                -3.000000000e+00 3.000000000e+01*       
*        6.000000000e+01
GRID*                119                 0.000000000e+00 3.000000000e+01*       
*        6.000000000e+01
GRID*                120                 3.000000000e+00 3.000000000e+01*       
*        6.000000000e+01
GRID*                121                -3.000000000e+00 4.000000000e+01*       
*        6.000000000e+01
GRID*                122                 0.000000000e+00 4.000000000e+01*       
*        6.000000000e+01
GRID*                123                 3.000000000e+00 4.000000000e+01*       
*        6.000000000e+01
GRID*                124                -3.000000000e+00 5.000000000e+01*       
*        6.000000000e+01
GRID*                125                 0.000000000e+00 5.000000000e+01*       
*        6.000000000e+01
GRID*                126                 3.000000000e+00 5.000000000e+01*       
*        6.000000000e+01
GRID*                127                -3.000000000e+00 0.000000000e+00*       
*        7.000000000e+01
GRID*                128                 0.000000000e+00 0.000000000e+00*       
*        7.000000000e+01
GRID*                129                 3.000000000e+00 0.000000000e+00*       
*        7.000000000e+01
GRID*                130                -3.000000000e+00 1.000000000e+01*       
*        7.000000000e+01
GRID*                131                 0.000000000e+00 1.000000000e+01*       
*        7.000000000e+01
GRID*                132                 3.000000000e+00 1.000000000e+01*       
*        7.000000000e+01
GRID*                133                -3.000000000e+00 2.000000000e+01*       
*        7.000000000e+01
GRID*                134                 0.000000000e+00 2.000000000e+01*       
*        7.000000000e+01
GRID*                135                 3.000000000e+00 2.000000000e+01*       
*        7.000000000e+01
GRID*                136                -3.000000000e+00 3.000000000e+01*       
*        7.000000000e+01
GRID*                137                 0.000000000e+00 3.000000000e+01*       
*        7.000000000e+01
GRID*                138                 3.000000000e+00 3.000000000e+01*       
*        7.000000000e+01
GRID*                139                -3.000000000e+00 4.000000000e+01*       
*        7.000000000e+01
GRID*                140                 0.000000000e+00 4.000000000e+01*       
*        7.000000000e+01
GRID*                141                 3.000000000e+00 4.000000000e+01*       
*        7.000000000e+01
GRID*                142                -3.000000000e+00 5.000000000e+01*       
*        7.000000000e+01
GRID*                143                 0.000000000e+00 5.000000000e+01*       
*        7.000000000e+01
GRID*                144                 3.000000000e+00 5.000000000e+01*       
*        7.000000000e+01
GRID*                145                -3.000000000e+00 0.000000000e+00*       
*        8.000000000e+01
GRID*                146                 0.000000000e+00 0.000000000e+00*       
*        8.000000000e+01
GRID*                147                 3.000000000e+00 0.000000000e+00*       
*        8.000000000e+01
GRID*                148                -3.000000000e+00 1.000000000e+01*       
*        8.000000000e+01
GRID*                149                 0.000000000e+00 1.000000000e+01*       
*        8.000000000e+01
GRID*                150                 3.000000000e+00 1.000000000e+01*       
*        8.000000000e+01
GRID*                151                -3.000000000e+00 2.000000000e+01*       
*        8.000000000e+01
GRID*                152                 0.000000000e+00 2.000000000e+01*       
*        8.000000000e+01
GRID*                153                 3.000000000e+00 2.000000000e+01*       
*        8.000000000e+01
GRID*                154                -3.000000000e+00 3.000000000e+01*       
*        8.000000000e+01
GRID*                155                 0.000000000e+00 3.000000000e+01*       
*        8.000000000e+01
GRID*                156                 3.000000000e+00 3.000000000e+01*       
*        8.000000000e+01
GRID*                157                -3.000000000e+00 4.000000000e+01*       
*        8.000000000e+01
GRID*                158                 0.000000000e+00 4.000000000e+01*       
*        8.000000000e+01
GRID*                159                 3.000000000e+00 4.000000000e+01*       
*        8.000000000e+01
GRID*                160                -3.000000000e+00 5.000000000e+01*       
*        8.000000000e+01
GRID*                161                 0.000000000e+00 5.000000000e+01*       
*        8.000000000e+01
GRID*                162                 3.000000000e+00 5.000000000e+01*       
*        8.000000000e+01
GRID*                163                -3.000000000e+00 0.000000000e+00*       
*        9.000000000e+01
GRID*                164                 0.000000000e+00 0.000000000e+00*       
*        9.000000000e+01
GRID*                165                 3.000000000e+00 0.000000000e+00*       
*        9.000000000e+01
GRID*                166                -3.000000000e+00 1.000000000e+01*       
*        9.000000000e+01
GRID*                167                 0.000000000e+00 1.000000000e+01*       
*        9.000000000e+01
GRID*                168                 3.000000000e+00 1.000000000e+01*       
*        9.000000000e+01
GRID*                169                -3.000000000e+00 2.000000000e+01*       
*        9.000000000e+01
GRID*                170                 0.000000000e+00 2.000000000e+01*       
*        9.000000000e+01
GRID*                171                 3.000000000e+00 2.000000000e+01*       
*        9.000000000e+01
GRID*                172                -3.000000000e+00 3.000000000e+01*       
*        9.000000000e+01
GRID*                173                 0.000000000e+00 3.000000000e+01*       
*        9.000000000e+01
GRID*                174                 3.000000000e+00 3.000000000e+01*       
*        9.000000000e+01
GRID*                175                -3.000000000e+00 4.000000000e+01*       
*        9.000000000e+01
GRID*                176                 0.000000000e+00 4.000000000e+01*       
*        9.000000000e+01
GRID*                177                 3.000000000e+00 4.000000000e+01*       
*        9.000000000e+01
GRID*                178                -3.000000000e+00 5.000000000e+01*       
*        9.000000000e+01
GRID*                179                 0.000000000e+00 5.000000000e+01*       
*        9.000000000e+01
GRID*                180                 3.000000000e+00 5.000000000e+01*       
*        9.000000000e+01
GRID*                181                -3.000000000e+00 0.000000000e+00*       
*        1.000000000e+02
GRID*                182                 0.000000000e+00 0.000000000e+00*       
*        1.000000000e+02
GRID*                183                 3.000000000e+00 0.000000000e+00*       
*        1.000000000e+02
GRID*                184                -3.000000000e+00 1.000000000e+01*       
*        1.000000000e+02
GRID*                185                 0.000000000e+00 1.000000000e+01*       
*        1.000000000e+02
GRID*                186                 3.000000000e+00 1.000000000e+01*       
*        1.000000000e+02
GRID*                187                -3.000000000e+00 2.000000000e+01*       
*        1.000000000e+02
GRID*                188                 0.000000000e+00 2.000000000e+01*       
*        1.000000000e+02
GRID*                189                 3.000000000e+00 2.000000000e+01*       
*        1.000000000e+02
GRID*                190                -3.000000000e+00 3.000000000e+01*       
*        1.000000000e+02
GRID*                191                 0.000000000e+00 3.000000000e+01*       
*        1.000000000e+02
GRID*                192                 3.000000000e+00 3.000000000e+01*       
*        1.000000000e+02
GRID*                193                -3.000000000e+00 4.000000000e+01*       
*        1.000000000e+02
GRID*                194                 0.000000000e+00 4.000000000e+01*       
*        1.000000000e+02
GRID*                195                 3.000000000e+00 4.000000000e+01*       
*        1.000000000e+02
GRID*                196                -3.000000000e+00 5.000000000e+01*       
*        1.000000000e+02
GRID*                197                 0.000000000e+00 5.000000000e+01*       
*        1.000000000e+02
GRID*                198                 3.000000000e+00 5.000000000e+01*       
*        1.000000000e+02
CHEXA          1       1       1       2       5       4      19      20+       
+             23      22
CHEXA          2       1       2       3       6       5      20      21+       
+             24      23
CHEXA          3       1       4       5       8       7      22      23+       
+             26      25
CHEXA          4       1       5       6       9       8      23      24+       
+             27      26
CHEXA          5       1       7       8      11      10      25      26+       
+             29      28
CHEXA          6       1       8       9      12      11      26      27+       
+             30      29
CHEXA          7       1      10      11      14      13      28      29+       
+             32      31
CHEXA          8       1      11      12      15      14      29      30+       
+             33      32
CHEXA          9       1      13      14      17      16      31      32+       
+             35      34
CHEXA         10       1      14      15      18      17      32      33+       
+             36      35
CHEXA         11       1      19      20      23      22      37      38+       
+             41      40
CHEXA         12       1      20      21      24      23      38      39+       
+             42      41
CHEXA         13       1      22      23      26      25      40      41+       
+             44      43
CHEXA         14       1      23      24      27      26      41      42+       
+             45      44
CHEXA         15       1      25      26      29      28      43      44+       
+             47      46
CHEXA         16       1      26      27      30      29      44      45+       
+             48      47
CHEXA         17       1      28      29      32      31      46      47+       
+             50      49
CHEXA         18       1      29      30      33      32      47      48+       
+             51      50
CHEXA         19       1      31      32      35      34      49      50+       
+             53      52
CHEXA         20       1      32      33      36      35      50      51+       
+             54      53
CHEXA         21       1      37      38      41      40      55      56+       
+             59      58
CHEXA         22       1      38      39      42      41      56      57+       
+             60      59
CHEXA         23       1      40      41      44      43      58      59+       
+             62      61
CHEXA         24       1      41      42      45      44      59      60+       
+             63      62
CHEXA         25       1      43      44      47      46      61      62+       
+             65      64
CHEXA         26       1      44      45      48      47      62      63+       
+             66      65
CHEXA         27       1      46      47      50      49      64      65+       
+             68      67
CHEXA         28       1      47      48      51      50      65      66+       
+             69      68
CHEXA         29       1      49      50      53      52      67      68+       
+             71      70
CHEXA         30       1      50      51      54      53      68      69+       
+             72      71
CHEXA         31       1      55      56      59      58      73      74+       
+             77      76
CHEXA         32       1      56      57      60      59      74      75+       
+             78      77
CHEXA         33       1      58      59      62      61      76      77+       
+             80      79
CHEXA         34       1      59      60      63      62      77      78+       
+             81      80
CHEXA         35       1      61      62      65      64      79      80+       
+             83      82
CHEXA         36       1      62      63      66      65      80      81+       
+             84      83
CHEXA         37       1      64      65      68      67      82      83+       
+             86      85
CHEXA         38       1      65      66      69      68      83      84+       
+             87      86
CHEXA         39       1      67      68      71      70      85      86+       
+             89      88
CHEXA         40       1      68      69      72      71      86      87+       
+             90      89
CHEXA         41       1      73      74      77      76      91      92+       
+             95      94
CHEXA         42       1      74      75      78      77      92      93+       
+             96      95
CHEXA         43       1      76      77      80      79      94      95+       
+             98      97
CHEXA         44       1      77      78      81      80      95      96+       
+             99      98
CHEXA         45       1      79      80      83      82      97      98+       
+            101     100
CHEXA         46       1      80      81      84      83      98      99+       
+            102     101
CHEXA         47       1      82      83      86      85     100     101+       
+            104     103
CHEXA         48       1      83      84      87      86     101     102+       
+            105     104
CHEXA         49       1      85      86      89      88     103     104+       
+            107     106
CHEXA         50       1      86      87      90      89     104     105+       
+            108     107
CHEXA         51       1      91      92      95      94     109     110+       
+            113     112
CHEXA         52       1      92      93      96      95     110     111+       
+            114     113
CHEXA         53       1      94      95      98      97     112     113+       
+            116     115
CHEXA         54       1      95      96      99      98     113     114+       
+            117     116
CHEXA         55       1      97      98     101     100     115     116+       
+            119     118
CHEXA         56       1      98      99     102     101     116     117+       
+            120     119
CHEXA         57       1     100     101     104     103     118     119+       
+            122     121
CHEXA         58       1     101     102     105     104     119     120+       
+            123     122
CHEXA         59       1     103     104     107     106     121     122+       
+            125     124
CHEXA         60       1     104     105     108     107     122     123+       
+            126     125
CHEXA         61       1     109     110     113     112     127     128+       
+            131     130
CHEXA         62       1     110     111     114     113     128     129+       
+            132     131
CHEXA         63       1     112     113     116     115     130     131+       
+            134     133
CHEXA         64       1     113     114     117     116     131     132+       
+            135     134
CHEXA         65       1     115     116     119     118     133     134+       
+            137     136
CHEXA         66       1     116     117     120     119     134     135+       
+            138     137
CHEXA         67       1     118     119     122     121     136     137+       
+            140     139
CHEXA         68       1     119     120     123     122     137     138+       
+            141     140
CHEXA         69       1     121     122     125     124     139     140+       
+            143     142
CHEXA         70       1     122     123     126     125     140     141+       
+            144     143
CHEXA         71       1     127     128     131     130     145     146+       
+            149     148
CHEXA         72       1     128     129     132     131     146     147+       
+            150     149
CHEXA         73       1     130     131     134     133     148     149+       
+            152     151
CHEXA         74       1     131     132     135     134     149     150+       
+            153     152
CHEXA         75       1     133     134     137     136     151     152+       
+            155     154
CHEXA         76       1     134     135     138     137     152     153+       
+            156     155
CHEXA         77       1     136     137     140     139     154     155+       
+            158     157
CHEXA         78       1     137     138     141     140     155     156+       
+            159     158
CHEXA         79       1     139     140     143     142     157     158+       
+            161     160
CHEXA         80       1     140     141     144     143     158     159+       
+            162     161
CHEXA         81       1     145     146     149     148     163     164+       
+            167     166
CHEXA         82       1     146     147     150     149     164     165+       
+            168     167
CHEXA         83       1     148     149     152     151     166     167+       
+            170     169
CHEXA         84       1     149     150     153     152     167     168+       
+            171     170
CHEXA         85       1     151     152     155     154     169     170+       
+            173     172
CHEXA         86       1     152     153     156     155     170     171+       
+            174     173
CHEXA         87       1     154     155     158     157     172     173+       
+            176     175
CHEXA         88       1     155     156     159     158     173     174+       
+            177     176
CHEXA         89       1     157     158     161     160     175     176+       
+            179     178
CHEXA         90       1     158     159     162     161     176     177+       
+            180     179
CHEXA         91       1     163     164     167     166     181     182+       
+            185     184
CHEXA         92       1     164     165     168     167     182     183+       
+            186     185
CHEXA         93       1     166     167     170     169     184     185+       
+            188     187
CHEXA         94       1     167     168     171     170     185     186+       
+            189     188
CHEXA         95       1     169     170     173     172     187     188+       
+            191     190
CHEXA         96       1     170     171     174     173     188     189+       
+            192     191
CHEXA         97       1     172     173     176     175     190     191+       
+            194     193
CHEXA         98       1     173     174     177     176     191     192+       
+            195     194
CHEXA         99       1     175     176     179     178     193     194+       
+            197     196
CHEXA        100       1     176     177     180     179     194     195+       
+            198     197
ENDDATA
